<?xml version="1.0" encoding="utf-8"?>
<!-- Generator: Adobe Illustrator 27.3.1, SVG Export Plug-In . SVG Version: 6.00 Build 0)  -->
<svg version="1.1" id="Layer_1" xmlns="http://www.w3.org/2000/svg" xmlns:xlink="http://www.w3.org/1999/xlink" x="0px" y="0px"
	 viewBox="0 0 461.9 461.42" style="enable-background:new 0 0 461.9 461.42;" xml:space="preserve">
<style type="text/css">
	.st0{fill:#7DDA55;}
	.st1{fill:url(#SVGID_1_);}
	.st2{fill:#37B9FF;}
	.st3{fill:url(#SVGID_00000065032556969870770360000008959984670674273724_);}
	.st4{fill:#FFDE59;}
	.st5{fill:url(#SVGID_00000047058691263523605360000006220999449208879519_);}
	.st6{fill:#F9F9F9;}
	.st7{fill:url(#SVGID_00000128475374568541807760000016141738277843549573_);}
	.st8{fill:url(#SVGID_00000043435412669747034420000011285829108752672908_);}
	.st9{fill:url(#SVGID_00000078033002462557678150000001508071217443461788_);}
	.st10{fill:url(#SVGID_00000084512672380264719240000003578883888664905090_);}
	.st11{fill:url(#SVGID_00000123407130394935355610000006099329010179497088_);}
	.st12{fill:url(#SVGID_00000057835111356379704970000006826818006508705467_);}
	.st13{fill:url(#SVGID_00000080893249198481321040000007261873582315942057_);}
	.st14{fill:url(#SVGID_00000030466733485704519520000004644997012283440037_);}
	.st15{fill:url(#SVGID_00000142141980880248527380000013246823671943857553_);}
	.st16{fill:url(#SVGID_00000137089744452108376710000016510617770000079235_);}
	.st17{fill:url(#SVGID_00000049905305339005208730000017379759246059311028_);}
	.st18{fill:url(#SVGID_00000133488529950329306740000001926087339978998406_);}
	.st19{fill:url(#SVGID_00000170244289607382907760000011359525939191177107_);}
	.st20{fill:url(#SVGID_00000152266506179978296600000018438542726126969278_);}
	.st21{fill:url(#SVGID_00000103245502053384891830000003247571635756699291_);}
	.st22{fill:#2560D4;}
	.st23{fill:#2D71E0;}
	.st24{fill:#F3A03D;}
	.st25{fill:url(#SVGID_00000160163407942204983320000008588455651294286733_);}
	.st26{fill:url(#SVGID_00000014616621375543165090000015699551361534348677_);}
	.st27{fill:url(#SVGID_00000086649744240662184800000002264581283732978110_);}
	.st28{fill:url(#SVGID_00000026127688210802688280000017519736722683116162_);}
	.st29{fill:url(#SVGID_00000022543779871709164720000010129292375389163151_);}
	.st30{fill:url(#SVGID_00000008835744711356559370000017665534501608567462_);}
	.st31{fill:url(#SVGID_00000131326727795773201050000016750259119662086564_);}
	.st32{fill:url(#SVGID_00000079445941141785070250000018003190639538942142_);}
	.st33{fill:url(#SVGID_00000132071429628984723890000009435319215848845714_);}
	.st34{fill:url(#SVGID_00000041290640787493135390000017527778912959144327_);}
	.st35{fill:url(#SVGID_00000044873472938170370010000008995978303763778969_);}
	.st36{fill:url(#SVGID_00000175309108516181872050000011608666087986649757_);}
	.st37{fill:#F9F9F9;stroke:#F9F9F9;stroke-width:1.25;stroke-miterlimit:10;}
	.st38{fill:url(#SVGID_00000084490687278326246950000017134136498782061953_);}
	.st39{fill:url(#SVGID_00000021827474108905602010000018432763701364819861_);}
	.st40{fill:url(#SVGID_00000003084010441050903050000002212823448702738068_);}
	.st41{fill:url(#SVGID_00000088123834758202873320000008759026179869058467_);}
	.st42{fill:url(#SVGID_00000031206443908905334930000012655401619430130358_);}
	.st43{fill:url(#SVGID_00000130612160881779803110000006996636603132678583_);}
	.st44{fill:#F9F9F9;stroke:#F8F8F8;stroke-width:1.25;stroke-miterlimit:10;}
	.st45{fill:url(#SVGID_00000114772591339729282060000001182036426699077782_);}
	.st46{fill:url(#SVGID_00000091699843933907031080000012759702487874684080_);}
	.st47{fill:url(#SVGID_00000171691805667604402250000014774430302473120649_);}
	.st48{fill:none;stroke:#F9F9F9;stroke-width:1.25;stroke-miterlimit:10;}
	.st49{fill:url(#SVGID_00000119091221800103083680000013878725886217858479_);}
	.st50{fill:url(#SVGID_00000050625634345764742170000007060845756104838289_);}
	.st51{fill:url(#SVGID_00000003807128258684924880000009363865577162170005_);}
	.st52{fill:none;stroke:#2560D4;stroke-width:1.25;stroke-miterlimit:10;}
	.st53{fill:url(#SVGID_00000114758854287103920320000013009304205703756424_);}
	.st54{fill:url(#SVGID_00000093168597518931270640000008944251202629383329_);}
	.st55{fill:url(#SVGID_00000137116891239702244080000017011947325841350063_);}
	.st56{fill:url(#SVGID_00000042703108818468685910000012538556194789232279_);}
	.st57{fill:url(#SVGID_00000076569505433012038210000008918157572932801958_);}
	.st58{fill:url(#SVGID_00000136398107644811597770000012102908919539325367_);}
	.st59{fill:url(#SVGID_00000044881275116568608740000012163675635769489852_);}
	.st60{fill:url(#SVGID_00000053510874080889565040000015092399867584598422_);}
	.st61{fill:url(#SVGID_00000021819795449901432240000017695220274388496283_);}
	.st62{fill:url(#SVGID_00000150060037297080577240000002768907022204492203_);}
	.st63{fill:url(#SVGID_00000064334763957801980800000005182391838159743904_);}
	.st64{fill:url(#SVGID_00000083789777012825756140000003865999409109634435_);}
	.st65{fill:url(#SVGID_00000000210664268878827640000007315929776456535428_);}
	.st66{fill:url(#SVGID_00000119832223660712205590000007215962069440751537_);}
	.st67{fill:url(#SVGID_00000137110420186821237480000000303966914609898392_);}
	.st68{fill:url(#SVGID_00000165219897091327040660000008451625300622655906_);}
	.st69{fill:url(#SVGID_00000050660887348944171310000017429940840064975029_);}
	.st70{fill:url(#SVGID_00000103255542361066431410000012606343580857362343_);}
	.st71{fill:url(#SVGID_00000008865915018397767490000018062422761307860158_);}
	.st72{fill:url(#SVGID_00000086670836219077618900000006904549335312652958_);}
	.st73{fill:url(#SVGID_00000020359833858707500770000012169430388946679473_);}
</style>
<g>
	<g>
		<path class="st0" d="M212.89,402.02c0,0-65.51-24.85-109.18-131.77c0,0,33.13,13.55,34.64,13.55c0,0-79.81-128,52.71-138.54
			c0,0-256.35-6.69-109.93,204.8l-45.18-7.41C35.95,342.66,102.21,461.5,212.89,402.02z"/>
		<linearGradient id="SVGID_1_" gradientUnits="userSpaceOnUse" x1="117.1401" y1="151.6464" x2="171.9289" y2="433.1676">
			<stop  offset="0" style="stop-color:#B6E74D"/>
			<stop  offset="1" style="stop-color:#3A9011"/>
		</linearGradient>
		<path class="st1" d="M191.06,145.27c0,0-138.54-10.54-102.4,106.92H61.55c0,0,49.69,146.07,124.99,161.13
			c0,0,14.31-3.76,26.35-11.29c0,0-76.8-43.67-106.17-127.25l32.38,9.79C139.1,284.56,59.29,164.84,191.06,145.27z"/>
	</g>
	<g>
		<path class="st2" d="M366.59,167.8c0,0,11.17,69.16-59.67,160.38c0,0-4.8-35.47-5.55-36.78c0,0-71.06,133.06-146.36,23.5
			c0,0,122.18,225.46,232.33-6.99l16.13,42.84C403.49,350.75,473.38,234,366.59,167.8z"/>
		
			<linearGradient id="SVGID_00000090259863855742154790000011987199268967083136_" gradientUnits="userSpaceOnUse" x1="-3742.8611" y1="-7215.6851" x2="-3688.0723" y2="-6934.1641" gradientTransform="matrix(-0.4992 -0.8665 0.8665 -0.4992 4581.0439 -6469.6191)">
			<stop  offset="0" style="stop-color:#5181E7"/>
			<stop  offset="1" style="stop-color:#17E5DB"/>
		</linearGradient>
		<path style="fill:url(#SVGID_00000090259863855742154790000011987199268967083136_);" d="M155.02,314.9
			c0,0,60.03,125.3,143.76,35.35l13.53,23.49c0,0,101.76-115.98,77.22-188.74c0,0-10.4-10.52-22.94-17.2c0,0,0.5,88.35-57.26,155.52
			l-7.68-32.94C301.65,290.37,237.76,419.29,155.02,314.9z"/>
	</g>
	<g>
		<path class="st4" d="M84.52,150.63c0,0,54.33-44.24,168.74-28.46c0,0-28.33,21.88-29.08,23.18c0,0,150.76-4.94,93.49,115.03
			c0,0,134.23-218.5-122.16-197.75l29.05-35.38C224.55,27.25,88.5,25.04,84.52,150.63z"/>
		
			<linearGradient id="SVGID_00000033350407264881168850000008215909109583572897_" gradientUnits="userSpaceOnUse" x1="4799.6636" y1="-6941.0122" x2="4854.4526" y2="-6659.4912" gradientTransform="matrix(-0.5011 0.8654 -0.8654 -0.5011 -3252.7983 -7438.3057)">
			<stop  offset="0" style="stop-color:#ED7D29"/>
			<stop  offset="1" style="stop-color:#FCD45A"/>
		</linearGradient>
		<path style="fill:url(#SVGID_00000033350407264881168850000008215909109583572897_);" d="M317.66,260.38
			c0,0,78.54-114.62-41.22-142.19l13.58-23.46c0,0-151.31-30.18-202.07,27.43c0,0-3.91,14.27-3.43,28.47
			c0,0,76.27-44.58,163.32-28.12l-24.69,23.11C223.15,145.63,366.74,136.54,317.66,260.38z"/>
	</g>
	<g>
		<g>
			<path class="st22" d="M216.06,266.62h39.36l-2.19,10.93h-52.18l13.91-69.57h50.79l-2.19,10.93H225.6L216.06,266.62z
				 M221.12,236.9h34.59l-2.09,10.64h-34.59L221.12,236.9z"/>
		</g>
	</g>
	
		<rect x="212.8" y="205.63" transform="matrix(0.0255 -0.9997 0.9997 0.0255 -0.5083 417.197)" class="st22" width="1.88" height="6.45"/>
</g>
</svg>
