<?xml version="1.0" encoding="utf-8"?>
<!-- Generator: Adobe Illustrator 27.3.1, SVG Export Plug-In . SVG Version: 6.00 Build 0)  -->
<svg version="1.1" id="Layer_1" xmlns="http://www.w3.org/2000/svg" xmlns:xlink="http://www.w3.org/1999/xlink" x="0px" y="0px"
	 viewBox="0 0 916.65 232.26" style="enable-background:new 0 0 916.65 232.26;" xml:space="preserve">
<style type="text/css">
	.st0{fill:#7DDA55;}
	.st1{fill:url(#SVGID_1_);}
	.st2{fill:#37B9FF;}
	.st3{fill:url(#SVGID_00000125579558385572516640000011953848459435699623_);}
	.st4{fill:#FFDE59;}
	.st5{fill:url(#SVGID_00000175288237307314501700000005802955088349647748_);}
	.st6{fill:#F9F9F9;}
	.st7{fill:url(#SVGID_00000072995374110465075230000001763690694877371064_);}
	.st8{fill:url(#SVGID_00000078730838002853371210000008323356192538088361_);}
	.st9{fill:url(#SVGID_00000114031553755889198840000006761078455532301497_);}
	.st10{fill:url(#SVGID_00000018198697843222715630000007310184554077578119_);}
	.st11{fill:url(#SVGID_00000163766796918405289380000005997322413162111105_);}
	.st12{fill:url(#SVGID_00000032606926106375350040000015320663653498151849_);}
	.st13{fill:url(#SVGID_00000167365795443492189810000008733830092546804403_);}
	.st14{fill:url(#SVGID_00000166660667961441022740000006146491814967354278_);}
	.st15{fill:url(#SVGID_00000127016927388510086260000003933047786397287083_);}
	.st16{fill:url(#SVGID_00000126318328951169125520000017971235968720658601_);}
	.st17{fill:url(#SVGID_00000072243301155766644310000009985084333404603787_);}
	.st18{fill:url(#SVGID_00000086665483598859404000000000354149958804453760_);}
	.st19{fill:url(#SVGID_00000130629889370885627450000006932652494977801394_);}
	.st20{fill:url(#SVGID_00000176035676012024691180000007153084611169227933_);}
	.st21{fill:url(#SVGID_00000122681134748545057140000017851818021635343500_);}
	.st22{fill:#2560D4;}
	.st23{fill:#2D71E0;}
	.st24{fill:#F3A03D;}
	.st25{fill:url(#SVGID_00000147217670228804097780000012696135820552803999_);}
	.st26{fill:url(#SVGID_00000111165282582123088100000009254977167978126211_);}
	.st27{fill:url(#SVGID_00000011716292462057615780000004996654800436059814_);}
	.st28{fill:url(#SVGID_00000124857519408679683780000005133592253235196351_);}
	.st29{fill:url(#SVGID_00000001631711591507788270000003377699743694265479_);}
	.st30{fill:url(#SVGID_00000119103780441907512680000005504835256186608038_);}
	.st31{fill:url(#SVGID_00000036249231350604621710000005660834095957382546_);}
	.st32{fill:url(#SVGID_00000143592935332814101750000006817699495033063048_);}
	.st33{fill:url(#SVGID_00000057114947415411309510000003073035272274148505_);}
	.st34{fill:url(#SVGID_00000028306232815971891200000013122817905346826114_);}
	.st35{fill:url(#SVGID_00000015316198076357605360000005100550733669868182_);}
	.st36{fill:url(#SVGID_00000156562321681156711410000014954439228104634756_);}
	.st37{fill:#F9F9F9;stroke:#F9F9F9;stroke-width:1.25;stroke-miterlimit:10;}
	.st38{fill:url(#SVGID_00000106128961020483291500000001791419310366278556_);}
	.st39{fill:url(#SVGID_00000103233263671065650960000013775102560912790694_);}
	.st40{fill:url(#SVGID_00000159433884690315003720000008422424130656263568_);}
	.st41{fill:url(#SVGID_00000152953177760149366160000011240248624787689866_);}
	.st42{fill:url(#SVGID_00000150790166295419912390000013630998280324102570_);}
	.st43{fill:url(#SVGID_00000098208458734066880080000002366052892737368503_);}
	.st44{fill:#F9F9F9;stroke:#F8F8F8;stroke-width:1.25;stroke-miterlimit:10;}
	.st45{fill:url(#SVGID_00000100344820599468536760000003968853399012622005_);}
	.st46{fill:url(#SVGID_00000056420077804718332870000006183744097340146351_);}
	.st47{fill:url(#SVGID_00000165216231196159165000000010364394582773274509_);}
	.st48{fill:none;stroke:#F9F9F9;stroke-width:1.25;stroke-miterlimit:10;}
	.st49{fill:url(#SVGID_00000158750570349318411300000002571669275365441437_);}
	.st50{fill:url(#SVGID_00000099637607167816093770000003394990363869704367_);}
	.st51{fill:url(#SVGID_00000065776766419860929880000015116080356173165491_);}
	.st52{fill:none;stroke:#2560D4;stroke-width:1.25;stroke-miterlimit:10;}
	.st53{fill:url(#SVGID_00000088126946605542809370000012751077293961466045_);}
	.st54{fill:url(#SVGID_00000067212042359361571300000014964791649230809761_);}
	.st55{fill:url(#SVGID_00000053512755213577945940000015902665274871635642_);}
	.st56{fill:url(#SVGID_00000005952840009861594320000015923964969974396815_);}
	.st57{fill:url(#SVGID_00000169521854712907042210000011503445483329052085_);}
	.st58{fill:url(#SVGID_00000170276932906991139390000002961743140232339361_);}
	.st59{fill:url(#SVGID_00000019637997480274778170000016318147850973625493_);}
	.st60{fill:url(#SVGID_00000093897270451872674970000003287273857507923076_);}
	.st61{fill:url(#SVGID_00000043434586139190573720000015660364331603379640_);}
	.st62{fill:url(#SVGID_00000151511455453492227230000013617470435492127404_);}
	.st63{fill:url(#SVGID_00000171696996026441517110000016376400988718490534_);}
	.st64{fill:url(#SVGID_00000037660490087304536530000011287899027407639442_);}
	.st65{fill:url(#SVGID_00000124124685028972606800000004864277171556356533_);}
	.st66{fill:url(#SVGID_00000079461227631036369340000016408874106130395578_);}
	.st67{fill:url(#SVGID_00000098902597225983527110000018211037816041962409_);}
	.st68{fill:url(#SVGID_00000072276695908804964560000004704010735275956153_);}
	.st69{fill:url(#SVGID_00000078022512290269046120000013293084717702603925_);}
	.st70{fill:url(#SVGID_00000147184208309011624320000005499948137612731030_);}
	.st71{fill:url(#SVGID_00000126307273289186111080000009236424702543198393_);}
	.st72{fill:url(#SVGID_00000048499296009424812930000004830186871788497339_);}
	.st73{fill:url(#SVGID_00000177478018773243013980000007119517619780567440_);}
</style>
<g>
	<g>
		<path class="st0" d="M145.95,186.65c0,0-26.79-10.16-44.66-53.9c0,0,13.55,5.54,14.17,5.54c0,0-32.65-52.36,21.56-56.67
			c0,0-104.85-2.74-44.96,83.77l-18.48-3.03C73.58,162.37,100.68,210.98,145.95,186.65z"/>
		<linearGradient id="SVGID_1_" gradientUnits="userSpaceOnUse" x1="106.7866" y1="84.2351" x2="129.1969" y2="199.3858">
			<stop  offset="0" style="stop-color:#B6E74D"/>
			<stop  offset="1" style="stop-color:#3A9011"/>
		</linearGradient>
		<path class="st1" d="M137.02,81.63c0,0-56.67-4.31-41.89,43.73H84.05c0,0,20.33,59.75,51.12,65.91c0,0,5.85-1.54,10.78-4.62
			c0,0-31.41-17.86-43.42-52.05l13.24,4C115.77,138.6,83.12,89.63,137.02,81.63z"/>
	</g>
	<g>
		<path class="st2" d="M208.82,90.84c0,0,4.57,28.29-24.41,65.6c0,0-1.96-14.51-2.27-15.04c0,0-29.07,54.42-59.86,9.61
			c0,0,49.98,92.22,95.03-2.86l6.6,17.52C223.91,165.67,252.5,117.92,208.82,90.84z"/>
		
			<linearGradient id="SVGID_00000127764276079792199480000006227859350047931299_" gradientUnits="userSpaceOnUse" x1="-3770.3633" y1="-1737.8638" x2="-3747.9531" y2="-1622.7131" gradientTransform="matrix(-0.4992 -0.8665 0.8665 -0.4992 -236.8534 -3958.5938)">
			<stop  offset="0" style="stop-color:#5181E7"/>
			<stop  offset="1" style="stop-color:#17E5DB"/>
		</linearGradient>
		<path style="fill:url(#SVGID_00000127764276079792199480000006227859350047931299_);" d="M122.28,151.01
			c0,0,24.55,51.25,58.8,14.46l5.54,9.61c0,0,41.62-47.44,31.58-77.2c0,0-4.26-4.3-9.38-7.03c0,0,0.21,36.14-23.42,63.61
			l-3.14-13.47C182.26,140.98,156.12,193.71,122.28,151.01z"/>
	</g>
	<g>
		<path class="st4" d="M93.45,83.82c0,0,22.22-18.1,69.02-11.64c0,0-11.59,8.95-11.9,9.48c0,0,61.67-2.02,38.24,47.05
			c0,0,54.91-89.37-49.97-80.89l11.88-14.47C150.72,33.35,95.07,32.45,93.45,83.82z"/>
		
			<linearGradient id="SVGID_00000016037580931723750620000004443071803902623360_" gradientUnits="userSpaceOnUse" x1="-24.219" y1="-4249.6772" x2="-1.8087" y2="-4134.5269" gradientTransform="matrix(-0.5011 0.8654 -0.8654 -0.5011 -3488.1777 -2007.1162)">
			<stop  offset="0" style="stop-color:#ED7D29"/>
			<stop  offset="1" style="stop-color:#FCD45A"/>
		</linearGradient>
		<path style="fill:url(#SVGID_00000016037580931723750620000004443071803902623360_);" d="M188.81,128.71
			c0,0,32.13-46.88-16.86-58.16l5.56-9.6c0,0-61.89-12.35-82.65,11.22c0,0-1.6,5.84-1.4,11.64c0,0,31.2-18.24,66.8-11.5l-10.1,9.45
			C150.15,81.77,208.88,78.06,188.81,128.71z"/>
	</g>
	<g>
		<g>
			<path class="st22" d="M147.24,131.26h16.1l-0.89,4.47H141.1l5.69-28.46h20.77l-0.89,4.47h-15.53L147.24,131.26z M149.32,119.11
				h14.15l-0.85,4.35h-14.15L149.32,119.11z"/>
		</g>
	</g>
	
		<rect x="145.91" y="106.32" transform="matrix(0.0255 -0.9997 0.9997 0.0255 34.9617 251.1399)" class="st22" width="0.77" height="2.64"/>
</g>
<g>
	<path class="st23" d="M273.33,132.89c1.97,0,3.24-0.18,3.81-0.55c0.57-0.37,0.94-0.76,1.1-1.17c0.16-0.42,0.24-0.93,0.24-1.54
		V97.19c0-1.26-0.38-2.13-1.13-2.61s-2.08-0.72-3.99-0.72v-3.35h33.17l1.19,11.07l-4.42,0.03l-0.82-3.45
		c-0.41-1.65-0.82-2.68-1.25-3.11c-0.75-0.75-2.02-1.13-3.81-1.13h-12.08v17.75h5.92c2.3,0,3.7-0.15,4.22-0.46s0.87-0.74,1.07-1.31
		c0.19-0.57,0.29-1.39,0.29-2.47h3.96v11.8h-3.96c0-1.89-0.37-3.06-1.11-3.52c-0.74-0.46-2.23-0.69-4.47-0.69h-5.92v17.87h12.96
		c2.36,0,3.92-0.79,4.7-2.38c0.24-0.49,0.49-1,0.73-1.52l1.37-3.75h4.42l-1.19,11.01h-35V132.89z"/>
	<path class="st23" d="M313.97,132.83c1.99,0,3.28-0.19,3.87-0.58c0.59-0.39,0.97-0.8,1.14-1.24c0.17-0.44,0.26-0.96,0.26-1.57
		V97.31c0-1.32-0.24-2.15-0.73-2.5c-0.81-0.59-2.33-0.88-4.54-0.88v-3.42h10.52l26.16,33.2V97.31c0-1.34-0.23-2.17-0.7-2.5
		c-0.81-0.59-2.32-0.88-4.51-0.88v-3.42h15.37v3.42c-1.99,0-3.28,0.19-3.87,0.58c-0.59,0.39-0.97,0.8-1.14,1.24
		c-0.17,0.44-0.26,0.96-0.26,1.57v38.94h-3.75l-27.66-35.09v28.29c0,1.32,0.24,2.16,0.73,2.5c0.81,0.59,2.34,0.88,4.57,0.88v3.42
		h-15.46V132.83z"/>
	<path class="st23" d="M387.85,95.69c-1.06-1.42-3.32-2.13-6.78-2.13s-5.86,1.16-7.18,3.48c-0.45,0.79-0.67,1.77-0.67,2.93
		c0,2.13,0.96,4.09,2.87,5.85c1.26,1.18,3,2.39,5.23,3.63c2.23,1.24,4.1,2.35,5.63,3.32c5.75,3.66,8.63,7.66,8.63,12.01
		c0,3.86-1.42,6.84-4.25,8.93s-6.5,3.14-11.01,3.14c-4.5,0-8.11-0.89-10.82-2.67c-2.71-1.78-4.07-3.82-4.07-6.13
		c0-2.31,0.92-3.87,2.78-4.68c0.57-0.26,1.19-0.4,1.86-0.4c1.28,0,2.33,0.43,3.16,1.28c0.82,0.85,1.23,1.93,1.23,3.23
		s-0.59,2.41-1.77,3.32c1.59,1.59,4.21,2.38,7.88,2.38c3.67,0,6.18-1.24,7.55-3.72c0.49-0.85,0.73-1.85,0.73-2.99
		c0-1.97-1.02-3.8-3.05-5.49c-1.06-0.87-2.84-2.01-5.35-3.4c-2.51-1.39-4.49-2.56-5.93-3.49c-5.31-3.42-7.96-7.44-7.96-12.07
		c0-3.62,1.37-6.54,4.1-8.78c2.73-2.24,6.12-3.35,10.15-3.35s7.35,0.86,9.94,2.59c2.59,1.73,3.89,3.83,3.89,6.31
		c0,1.34-0.41,2.47-1.24,3.37s-1.87,1.36-3.12,1.36c-1.93,0-3.27-0.84-4.02-2.53c-0.22-0.51-0.34-1.05-0.34-1.62
		C385.9,97.82,386.55,96.59,387.85,95.69z"/>
	<path class="st23" d="M400.66,132.89c2.13,0,3.47-0.19,3.99-0.56s0.84-0.78,0.95-1.2c0.1-0.43,0.15-0.95,0.15-1.56V97.19
		c0-1.32-0.22-2.14-0.67-2.47c-0.81-0.57-2.3-0.85-4.45-0.85v-3.35h16.68c8.33,0,13.75,2.32,16.25,6.95c1,1.83,1.49,4.04,1.49,6.63
		c0,2.59-0.52,4.83-1.55,6.72c-2.83,5.08-8.46,7.62-16.89,7.62c-0.39,0-0.77-0.01-1.16-0.03h-2.84v9.63c0,1.04,0.06,1.87,0.17,2.5
		c0.11,0.63,0.51,1.18,1.2,1.65c0.69,0.47,2.83,0.7,6.4,0.7v3.35h-19.73V132.89z M415.99,115.36c3.78,0,6.68-0.94,8.69-2.82
		c2.01-1.88,3.02-4.72,3.02-8.52c0-4.63-1.93-7.73-5.79-9.3c-1.38-0.57-3.06-0.85-5.03-0.85h-4.27v21.5H415.99z"/>
	<path class="st23" d="M439.32,132.89c1.97,0,3.24-0.18,3.81-0.55c0.57-0.37,0.94-0.76,1.1-1.17c0.16-0.42,0.24-0.93,0.24-1.54
		V97.19c0-1.26-0.38-2.13-1.13-2.61s-2.08-0.72-3.99-0.72v-3.35h33.17l1.19,11.07l-4.42,0.03l-0.82-3.45
		c-0.41-1.65-0.82-2.68-1.25-3.11c-0.75-0.75-2.02-1.13-3.81-1.13h-12.08v17.75h5.92c2.3,0,3.7-0.15,4.22-0.46s0.87-0.74,1.07-1.31
		c0.19-0.57,0.29-1.39,0.29-2.47h3.96v11.8h-3.96c0-1.89-0.37-3.06-1.11-3.52c-0.74-0.46-2.23-0.69-4.47-0.69h-5.92v17.87h12.96
		c2.36,0,3.92-0.79,4.7-2.38c0.24-0.49,0.49-1,0.73-1.52l1.37-3.75h4.42l-1.19,11.01h-35V132.89z"/>
	<path class="st23" d="M502.25,132.89c6.4,0,10.45-2.95,12.13-8.84h4.39c0,1.58-0.43,3.15-1.28,4.68c-0.85,1.53-2.05,2.9-3.6,4.1
		c-3.42,2.68-7.81,4.02-13.17,4.02c-5.37,0-9.96-1.79-13.78-5.37c-4.43-4.13-6.65-10.16-6.65-18.11c0-6.34,1.71-11.69,5.12-16.04
		c2.42-3.11,5.64-5.28,9.67-6.5c2.07-0.63,4.35-0.95,6.83-0.95c4.9,0,8.92,1.12,12.07,3.37c3.15,2.25,4.73,5.07,4.73,8.46
		c0,2.54-1,4.25-2.99,5.12c-0.59,0.26-1.23,0.4-1.92,0.4c-2.13,0-3.57-0.9-4.3-2.71c-0.22-0.57-0.34-1.24-0.34-2.03
		c0-0.78,0.22-1.55,0.67-2.32s1.04-1.35,1.77-1.75c-1.65-3.15-4.59-4.73-8.84-4.73c-4.25,0-7.7,1.61-10.37,4.83
		c-2.66,3.22-4,8.06-4,14.51c0,6.45,1.35,11.37,4.06,14.76C495.17,131.2,498.43,132.89,502.25,132.89z"/>
	<path class="st23" d="M534.57,132.89c2.3,0,3.82-0.19,4.57-0.56s1.24-0.78,1.46-1.2c0.22-0.43,0.33-0.95,0.33-1.56V94.05h-6.25
		c-3.35,0-5.27,1.78-5.76,5.34l-0.88,6.19l-4.42-0.03l1.34-15.03h38.82l1.34,15.03l-4.42,0.03l-0.88-6.19
		c-0.22-1.65-0.66-2.82-1.31-3.51c-1.18-1.22-2.66-1.83-4.45-1.83h-6.25v35.52c0,1.28,0.42,2.16,1.27,2.62
		c0.84,0.47,2.55,0.7,5.11,0.7v3.35h-19.61V132.89z"/>
	<path class="st23" d="M604.58,132.46c1.58,0,2.38-1.83,2.38-5.49h2.93c0.22,0.73,0.33,1.37,0.33,1.92s-0.01,1.14-0.03,1.78
		c-0.02,0.64-0.26,1.48-0.73,2.52c-1.12,2.44-3.21,3.66-6.28,3.66c-3.07,0-5.23-0.77-6.48-2.32s-2.14-3.12-2.67-4.71
		c-0.53-1.6-0.96-2.99-1.28-4.19c-0.93-3.27-1.69-5.41-2.26-6.4c-1.04-1.91-2.45-2.87-4.24-2.87h-6.71v11.68
		c0,1.04,0.05,1.87,0.15,2.5c0.1,0.63,0.46,1.18,1.08,1.65c0.62,0.47,2.52,0.7,5.69,0.7v3.35h-18.87v-3.35
		c2.13,0,3.46-0.19,3.99-0.56c0.53-0.38,0.84-0.78,0.95-1.2c0.1-0.43,0.15-0.95,0.15-1.56V97.19c0-1.32-0.22-2.14-0.67-2.47
		c-0.81-0.57-2.3-0.85-4.45-0.85v-3.35h18.72c10,0,15.56,3.09,16.68,9.27c0.18,1.02,0.27,2.21,0.27,3.57c0,2.93-0.92,5.42-2.76,7.49
		s-4.34,3.55-7.52,4.47c2.74,0.83,4.79,3.03,6.13,6.59c0.45,1.16,0.93,2.65,1.46,4.48c0.53,1.83,0.96,3.09,1.28,3.78
		C602.55,131.69,603.46,132.46,604.58,132.46z M586.35,113.32c3.48,0,5.93-0.84,7.38-2.51c1.44-1.68,2.17-4.1,2.17-7.26
		c0-3.16-0.84-5.57-2.53-7.21c-1.69-1.65-4.65-2.47-8.87-2.47h-4.94v19.45H586.35z"/>
	<path class="st23" d="M635.19,132.4c8.07,0,12.1-5.01,12.1-15.03V97.19c0-1.32-0.22-2.14-0.67-2.47c-0.81-0.57-2.3-0.85-4.45-0.85
		v-3.35h15.49v3.35c-1.93,0-3.19,0.19-3.78,0.56s-0.96,0.78-1.13,1.2s-0.24,0.95-0.24,1.56l0.03,19.85c0,9.98-3.54,16.2-10.61,18.66
		c-2.26,0.77-4.43,1.16-6.53,1.16s-3.85-0.15-5.26-0.44c-1.41-0.29-2.77-0.77-4.07-1.42c-2.85-1.42-5.11-3.58-6.8-6.46
		c-1.69-2.89-2.53-6.62-2.53-11.19V97.19c0-1.3-0.22-2.12-0.67-2.47c-0.75-0.57-2.13-0.85-4.15-0.85v-3.35H629v3.35
		c-2.05,0-3.39,0.19-4.01,0.56s-1.02,0.78-1.19,1.2s-0.26,0.95-0.26,1.56v20.79c0,4.9,1.11,8.53,3.32,10.88
		C629.08,131.23,631.86,132.4,635.19,132.4z"/>
	<path class="st23" d="M661.72,132.89c1.91,0,3.16-0.19,3.75-0.56c0.59-0.38,0.96-0.78,1.13-1.2c0.16-0.43,0.24-0.95,0.24-1.56
		V97.19c0-1.32-0.22-2.14-0.67-2.47c-0.81-0.57-2.3-0.85-4.45-0.85v-3.35h14.39l13.51,35.28l12.96-35.28h14.24v3.35
		c-1.93,0-3.19,0.19-3.78,0.56c-0.59,0.38-0.96,0.78-1.13,1.2s-0.24,0.95-0.24,1.56v32.38c0,1.3,0.23,2.12,0.7,2.47
		c0.81,0.57,2.3,0.85,4.45,0.85v3.35h-16.92v-3.35c1.91,0,3.15-0.19,3.71-0.56c0.56-0.38,0.91-0.78,1.05-1.2
		c0.14-0.43,0.21-0.95,0.21-1.56V97.03l-14.15,39.21h-3.38L671.72,97v32.56c0,1.32,0.22,2.15,0.67,2.47
		c0.81,0.57,2.3,0.85,4.45,0.85v3.35h-15.12V132.89z"/>
	<path class="st23" d="M742.31,132.89c1.93,0,3.19-0.19,3.78-0.56c0.59-0.38,0.96-0.78,1.13-1.2c0.16-0.43,0.24-0.95,0.24-1.56
		l-0.03-32.38c0-1.32-0.22-2.14-0.67-2.47c-0.81-0.57-2.3-0.85-4.45-0.85v-3.35h17.17v3.35c-1.93,0-3.19,0.19-3.78,0.56
		s-0.97,0.78-1.13,1.2c-0.16,0.43-0.24,0.95-0.24,1.56v35.52h10.52c3.25,0,5.49-1.78,6.71-5.34l1.22-3.45l4.21,0.03l-2.1,12.29
		h-32.56V132.89z"/>
	<path class="st23" d="M781.21,132.89c1.93,0,3.19-0.19,3.78-0.56s0.97-0.78,1.13-1.2c0.16-0.43,0.24-0.95,0.24-1.56l-0.03-32.38
		c0-1.32-0.22-2.14-0.67-2.47c-0.81-0.57-2.3-0.85-4.45-0.85v-3.35h17.17v3.35c-1.93,0-3.19,0.19-3.78,0.56
		c-0.59,0.38-0.97,0.78-1.13,1.2c-0.16,0.43-0.24,0.95-0.24,1.56v35.52h10.52c3.25,0,5.49-1.78,6.71-5.34l1.22-3.45l4.21,0.03
		l-2.1,12.29h-32.56V132.89z"/>
	<path class="st23" d="M842.26,132.89c6.4,0,10.45-2.95,12.13-8.84h4.39c0,1.58-0.43,3.15-1.28,4.68c-0.85,1.53-2.05,2.9-3.6,4.1
		c-3.42,2.68-7.81,4.02-13.17,4.02c-5.37,0-9.96-1.79-13.78-5.37c-4.43-4.13-6.65-10.16-6.65-18.11c0-6.34,1.71-11.69,5.12-16.04
		c2.42-3.11,5.64-5.28,9.67-6.5c2.07-0.63,4.35-0.95,6.83-0.95c4.9,0,8.92,1.12,12.08,3.37c3.15,2.25,4.73,5.07,4.73,8.46
		c0,2.54-1,4.25-2.99,5.12c-0.59,0.26-1.23,0.4-1.92,0.4c-2.13,0-3.57-0.9-4.3-2.71c-0.22-0.57-0.34-1.24-0.34-2.03
		c0-0.78,0.22-1.55,0.67-2.32s1.04-1.35,1.77-1.75c-1.65-3.15-4.59-4.73-8.84-4.73c-4.25,0-7.71,1.61-10.37,4.83
		c-2.66,3.22-3.99,8.06-3.99,14.51c0,6.45,1.35,11.37,4.05,14.76S838.43,132.89,842.26,132.89z"/>
</g>
<g>
	<g>
		<path class="st24" d="M283.56,170.78c2.43,0.64,3.64,1.99,3.64,4.05c0,0.86-0.13,1.52-0.39,2s-0.55,0.87-0.87,1.16
			c-1.05,0.97-2.87,1.46-5.44,1.46h-6.66v-1.21c0.77,0,1.25-0.07,1.44-0.2c0.19-0.14,0.3-0.28,0.34-0.43
			c0.04-0.15,0.06-0.34,0.06-0.56v-11.66c0-0.48-0.08-0.77-0.24-0.89c-0.29-0.21-0.83-0.31-1.6-0.31v-1.21h6.11
			c2.96,0,4.91,0.7,5.83,2.11c0.37,0.56,0.55,1.2,0.55,1.94C286.31,168.77,285.4,170.02,283.56,170.78z M279.63,170.42
			c2.05-0.04,3.3-0.64,3.74-1.8c0.15-0.38,0.22-0.8,0.22-1.27c0-0.99-0.29-1.76-0.87-2.32s-1.58-0.84-2.99-0.84h-1.59v6.24H279.63z
			 M280.29,178.24c2.18,0,3.51-0.71,3.97-2.13c0.14-0.42,0.21-0.87,0.21-1.36c0-1.01-0.38-1.81-1.15-2.4s-1.81-0.9-3.14-0.93
			c-0.15,0-0.31,0-0.47,0s-0.33,0-0.49,0h-1.08v6.83H280.29z"/>
		<path class="st24" d="M296.94,178.06c2.91,0,4.36-1.8,4.36-5.41v-7.27c0-0.48-0.08-0.77-0.24-0.89c-0.29-0.21-0.83-0.31-1.6-0.31
			v-1.21h5.58v1.21c-0.7,0-1.15,0.07-1.36,0.2c-0.21,0.14-0.35,0.28-0.41,0.43s-0.09,0.34-0.09,0.56l0.01,7.15
			c0,3.59-1.27,5.83-3.82,6.72c-0.81,0.28-1.6,0.42-2.35,0.42s-1.38-0.05-1.89-0.16c-0.51-0.11-1-0.28-1.46-0.51
			c-1.03-0.51-1.84-1.29-2.45-2.33s-0.91-2.38-0.91-4.03v-7.26c0-0.47-0.08-0.76-0.24-0.89c-0.27-0.21-0.77-0.31-1.49-0.31v-1.21
			h6.15v1.21c-0.74,0-1.22,0.07-1.44,0.2c-0.22,0.14-0.37,0.28-0.43,0.43s-0.09,0.34-0.09,0.56v7.49c0,1.76,0.4,3.07,1.2,3.92
			C294.74,177.64,295.74,178.06,296.94,178.06z"/>
		<path class="st24" d="M306.48,178.24c0.7,0,1.15-0.07,1.36-0.2c0.21-0.14,0.35-0.28,0.41-0.43c0.06-0.15,0.09-0.34,0.09-0.56
			l-0.01-11.66c0-0.48-0.08-0.77-0.25-0.89c-0.29-0.21-0.82-0.31-1.59-0.31v-1.21h6.17v1.21c-0.7,0-1.15,0.07-1.36,0.2
			c-0.21,0.14-0.35,0.28-0.41,0.43s-0.09,0.34-0.09,0.56l0.01,11.66c0,0.48,0.08,0.77,0.25,0.89c0.29,0.21,0.82,0.31,1.59,0.31v1.21
			h-6.17V178.24z"/>
		<path class="st24" d="M314.31,178.24c0.69,0,1.15-0.07,1.36-0.2c0.21-0.14,0.35-0.28,0.41-0.43c0.06-0.15,0.09-0.34,0.09-0.56
			l-0.01-11.66c0-0.48-0.08-0.77-0.24-0.89c-0.29-0.21-0.83-0.31-1.6-0.31v-1.21h6.18v1.21c-0.7,0-1.15,0.07-1.36,0.2
			c-0.21,0.14-0.35,0.28-0.41,0.43s-0.09,0.34-0.09,0.56v12.79h3.79c1.17,0,1.98-0.64,2.42-1.92l0.44-1.24l1.52,0.01l-0.76,4.42
			h-11.72V178.24z"/>
		<path class="st24" d="M328.31,178.24c0.78,0,1.26-0.07,1.45-0.2c0.19-0.14,0.3-0.28,0.34-0.43c0.04-0.15,0.06-0.34,0.06-0.56
			v-11.66c0-0.48-0.08-0.77-0.24-0.89c-0.29-0.21-0.83-0.31-1.6-0.31v-1.21h5.89c4.73,0,7.57,1.55,8.53,4.65
			c0.29,0.97,0.44,2,0.44,3.11c0,1.11-0.11,2.08-0.33,2.92s-0.53,1.58-0.92,2.22c-0.75,1.22-1.79,2.12-3.1,2.7
			c-1.31,0.57-2.78,0.86-4.4,0.86h-6.11V178.24z M334.67,178.23c3.76,0,5.64-2.45,5.64-7.35c0-2.09-0.52-3.75-1.56-4.97
			c-1.04-1.22-2.59-1.83-4.64-1.83h-1.48v14.15H334.67z"/>
		<path class="st24" d="M344.92,178.24c0.7,0,1.15-0.07,1.36-0.2c0.21-0.14,0.35-0.28,0.41-0.43c0.06-0.15,0.09-0.34,0.09-0.56
			l-0.01-11.66c0-0.48-0.08-0.77-0.25-0.89c-0.29-0.21-0.82-0.31-1.59-0.31v-1.21h6.17v1.21c-0.7,0-1.15,0.07-1.36,0.2
			c-0.21,0.14-0.35,0.28-0.41,0.43s-0.09,0.34-0.09,0.56l0.01,11.66c0,0.48,0.08,0.77,0.25,0.89c0.29,0.21,0.82,0.31,1.59,0.31v1.21
			h-6.17V178.24z"/>
		<path class="st24" d="M352.7,178.22c0.72,0,1.18-0.07,1.39-0.21c0.21-0.14,0.35-0.29,0.41-0.44c0.06-0.16,0.09-0.35,0.09-0.57
			v-11.57c0-0.48-0.09-0.78-0.26-0.9c-0.29-0.21-0.84-0.32-1.64-0.32v-1.23h3.79l9.42,11.95v-9.51c0-0.48-0.08-0.78-0.25-0.9
			c-0.29-0.21-0.83-0.32-1.62-0.32v-1.23h5.53v1.23c-0.72,0-1.18,0.07-1.39,0.21c-0.21,0.14-0.35,0.29-0.41,0.44
			c-0.06,0.16-0.09,0.35-0.09,0.57v14.02h-1.35l-9.96-12.63V177c0,0.48,0.09,0.78,0.26,0.9c0.29,0.21,0.84,0.32,1.65,0.32v1.23
			h-5.57V178.22z"/>
		<path class="st24" d="M372.09,176.13c-0.37-0.63-0.65-1.35-0.86-2.16c-0.21-0.82-0.31-1.65-0.31-2.5s0.07-1.62,0.2-2.31
			c0.13-0.69,0.34-1.35,0.62-1.98c0.59-1.34,1.5-2.41,2.71-3.21c1.21-0.8,2.71-1.2,4.48-1.2c1.77,0,3.25,0.44,4.42,1.32
			c1.18,0.88,1.77,1.95,1.77,3.22c0,0.86-0.34,1.45-1.03,1.75c-0.21,0.09-0.44,0.14-0.68,0.14c-0.47,0-0.85-0.15-1.14-0.44
			c-0.29-0.29-0.44-0.63-0.44-1.02c0-0.78,0.31-1.31,0.93-1.6c-0.29-0.62-0.79-1.1-1.49-1.46c-0.7-0.35-1.42-0.53-2.16-0.53
			c-1.56,0-2.83,0.58-3.81,1.75c-0.98,1.16-1.48,2.91-1.48,5.23c0,2.32,0.51,4.09,1.54,5.31s2.27,1.82,3.73,1.82
			c1.19,0,2.12-0.3,2.77-0.9c0.66-0.6,0.98-1.26,0.98-1.98s-0.16-1.17-0.49-1.36c-0.33-0.19-1.08-0.28-2.26-0.28v-1.46h5.03v7.19
			h-1.47l-0.41-1.32c-0.63,0.66-1.6,1.12-2.92,1.38c-0.48,0.1-1.03,0.15-1.65,0.15c-0.62,0-1.24-0.07-1.87-0.2
			c-0.63-0.14-1.24-0.35-1.82-0.63c-0.58-0.29-1.11-0.65-1.61-1.1C372.89,177.29,372.46,176.75,372.09,176.13z"/>
		<path class="st24" d="M404.81,179.51c-0.53,0.1-1.08,0.15-1.65,0.15c-2.3,0-4.17-0.74-5.6-2.22c-1.44-1.48-2.16-3.58-2.16-6.29
			s0.78-4.83,2.35-6.36c1.4-1.36,3.19-2.04,5.39-2.04c2.2,0,4.01,0.67,5.43,2.02c1.57,1.49,2.35,3.6,2.35,6.36
			c0,2.75-0.76,4.88-2.28,6.4c-0.48,0.48-1.01,0.89-1.6,1.21c0.34,1.39,0.73,2.28,1.16,2.66c0.18,0.15,0.38,0.23,0.62,0.23
			c0.44,0,0.78-0.18,1.01-0.53c0.23-0.36,0.35-0.76,0.35-1.22h1.08c0.07,0.21,0.1,0.43,0.1,0.67s-0.03,0.48-0.1,0.71
			c-0.15,0.55-0.44,1.01-0.88,1.39c-0.44,0.38-1,0.57-1.66,0.57c-1.14,0-2.03-0.38-2.66-1.15
			C405.6,181.52,405.19,180.67,404.81,179.51z M406.44,176.72c1.08-1.29,1.62-3.14,1.62-5.55s-0.46-4.18-1.39-5.3
			s-2.1-1.68-3.51-1.68c-1.41,0-2.58,0.58-3.51,1.73c-0.93,1.16-1.39,2.88-1.39,5.18c0,2.71,0.62,4.68,1.86,5.92
			c0.12-0.78,0.44-1.48,0.97-2.1c0.53-0.63,1.21-0.94,2.06-0.94c1.22,0,2.16,0.56,2.8,1.69C406.13,176,406.3,176.35,406.44,176.72z
			 M401.26,177.82c1.04,0.5,2.13,0.57,3.26,0.21c-0.35-1.69-0.94-2.54-1.77-2.54c-0.45,0-0.81,0.21-1.06,0.62
			C401.43,176.53,401.29,177.1,401.26,177.82z"/>
		<path class="st24" d="M420.72,178.06c2.91,0,4.36-1.8,4.36-5.41v-7.27c0-0.48-0.08-0.77-0.24-0.89c-0.29-0.21-0.83-0.31-1.6-0.31
			v-1.21h5.58v1.21c-0.7,0-1.15,0.07-1.36,0.2c-0.21,0.14-0.35,0.28-0.41,0.43s-0.09,0.34-0.09,0.56l0.01,7.15
			c0,3.59-1.27,5.83-3.82,6.72c-0.81,0.28-1.59,0.42-2.35,0.42s-1.38-0.05-1.89-0.16c-0.51-0.11-1-0.28-1.47-0.51
			c-1.02-0.51-1.84-1.29-2.45-2.33s-0.91-2.38-0.91-4.03v-7.26c0-0.47-0.08-0.76-0.24-0.89c-0.27-0.21-0.77-0.31-1.49-0.31v-1.21
			h6.15v1.21c-0.74,0-1.22,0.07-1.44,0.2s-0.37,0.28-0.43,0.43c-0.06,0.15-0.09,0.34-0.09,0.56v7.49c0,1.76,0.4,3.07,1.2,3.92
			C418.52,177.64,419.52,178.06,420.72,178.06z"/>
		<path class="st24" d="M429.25,178.24c0.61,0,1.07-0.09,1.38-0.28c0.31-0.19,0.55-0.49,0.72-0.92l5.93-14.06h1.88l5.42,14.06
			c0.2,0.47,0.42,0.79,0.66,0.95c0.24,0.16,0.71,0.25,1.42,0.25v1.21h-6.77v-1.21c0.97,0,1.54-0.07,1.72-0.2s0.26-0.27,0.25-0.43
			c-0.01-0.15-0.06-0.34-0.15-0.57l-0.99-2.75h-6.38l-1.13,2.75c-0.17,0.44-0.12,0.75,0.15,0.93c0.27,0.18,0.9,0.27,1.9,0.27v1.21
			h-6V178.24z M440.29,173.08l-2.55-7.11l-2.91,7.11H440.29z"/>
		<path class="st24" d="M447.52,178.24c0.7,0,1.15-0.07,1.36-0.2c0.21-0.14,0.35-0.28,0.41-0.43c0.06-0.15,0.09-0.34,0.09-0.56
			l-0.01-11.66c0-0.48-0.08-0.77-0.24-0.89c-0.29-0.21-0.83-0.31-1.6-0.31v-1.21h6.18v1.21c-0.7,0-1.15,0.07-1.36,0.2
			c-0.21,0.14-0.35,0.28-0.41,0.43s-0.09,0.34-0.09,0.56v12.79h3.79c1.17,0,1.98-0.64,2.42-1.92l0.44-1.24l1.51,0.01l-0.76,4.42
			h-11.72V178.24z"/>
		<path class="st24" d="M461.63,178.24c0.7,0,1.15-0.07,1.36-0.2c0.21-0.14,0.35-0.28,0.41-0.43c0.06-0.15,0.09-0.34,0.09-0.56
			l-0.01-11.66c0-0.48-0.08-0.77-0.25-0.89c-0.29-0.21-0.82-0.31-1.59-0.31v-1.21h6.17v1.21c-0.7,0-1.15,0.07-1.36,0.2
			c-0.21,0.14-0.35,0.28-0.41,0.43s-0.09,0.34-0.09,0.56l0.01,11.66c0,0.48,0.08,0.77,0.25,0.89c0.29,0.21,0.82,0.31,1.59,0.31v1.21
			h-6.17V178.24z"/>
		<path class="st24" d="M472.69,178.24c0.83,0,1.38-0.07,1.65-0.2c0.27-0.14,0.45-0.28,0.53-0.43c0.08-0.15,0.12-0.34,0.12-0.56
			v-12.79h-2.25c-1.21,0-1.9,0.64-2.08,1.92l-0.32,2.23l-1.59-0.01l0.48-5.41h13.97l0.48,5.41l-1.59,0.01l-0.32-2.23
			c-0.08-0.59-0.24-1.01-0.47-1.26c-0.42-0.44-0.96-0.66-1.6-0.66h-2.25v12.79c0,0.46,0.15,0.78,0.46,0.94s0.92,0.25,1.84,0.25v1.21
			h-7.06V178.24z"/>
		<path class="st24" d="M488.01,178.24c0.83,0,1.37-0.07,1.64-0.2c0.27-0.14,0.44-0.28,0.52-0.43c0.08-0.15,0.12-0.34,0.12-0.56
			l-0.01-3.12l-4.59-8.54c-0.25-0.45-0.5-0.74-0.76-0.87c-0.43-0.22-0.98-0.33-1.65-0.33v-1.21h6.36v1.21
			c-0.7,0-1.11,0.09-1.24,0.26c-0.12,0.18-0.07,0.49,0.16,0.93l3.26,6.7l3.42-6.7c0.23-0.45,0.28-0.73,0.14-0.86
			c-0.25-0.23-0.85-0.34-1.81-0.34v-1.21h5.68v1.21c-0.54,0-0.99,0.09-1.33,0.27c-0.35,0.18-0.64,0.49-0.87,0.92l-4.41,8.11v3.55
			c0,0.46,0.15,0.78,0.44,0.94c0.29,0.17,0.9,0.25,1.82,0.25v1.21h-6.88V178.24z"/>
		<path class="st24" d="M500.68,177.58c0-0.45,0.19-0.85,0.58-1.2c0.38-0.34,0.77-0.52,1.15-0.52c0.68,0,1.21,0.21,1.58,0.62
			c0.37,0.41,0.55,0.95,0.55,1.62c0,1.36-0.42,2.58-1.26,3.66c-0.84,1.08-1.91,1.72-3.21,1.93l-0.53-0.76
			c0.64-0.21,1.17-0.49,1.59-0.82c0.78-0.62,1.16-1.26,1.16-1.91c0-0.4-0.17-0.72-0.49-0.94c-0.16-0.12-0.31-0.23-0.45-0.32
			s-0.26-0.21-0.35-0.32C500.79,178.38,500.68,178.04,500.68,177.58z"/>
		<path class="st24" d="M527.87,178.09c0.57,0,0.86-0.66,0.86-1.98h1.05c0.08,0.26,0.12,0.49,0.12,0.69s0,0.41-0.01,0.64
			c-0.01,0.23-0.09,0.53-0.26,0.91c-0.4,0.88-1.16,1.32-2.26,1.32c-1.11,0-1.88-0.28-2.33-0.83c-0.45-0.56-0.77-1.12-0.96-1.7
			s-0.34-1.08-0.46-1.51c-0.34-1.18-0.61-1.95-0.81-2.3c-0.37-0.69-0.88-1.03-1.53-1.03h-2.42v4.2c0,0.37,0.02,0.67,0.05,0.9
			c0.04,0.23,0.17,0.42,0.39,0.59c0.22,0.17,0.91,0.25,2.05,0.25v1.21h-6.79v-1.21c0.77,0,1.25-0.07,1.44-0.2
			c0.19-0.14,0.3-0.28,0.34-0.43c0.04-0.15,0.05-0.34,0.05-0.56v-11.66c0-0.48-0.08-0.77-0.24-0.89c-0.29-0.21-0.83-0.31-1.6-0.31
			v-1.21h6.74c3.6,0,5.6,1.11,6,3.34c0.07,0.37,0.1,0.79,0.1,1.28c0,1.05-0.33,1.95-0.99,2.7c-0.66,0.74-1.56,1.28-2.71,1.61
			c0.99,0.3,1.72,1.09,2.21,2.37c0.16,0.42,0.34,0.95,0.53,1.61c0.19,0.66,0.34,1.11,0.46,1.36
			C527.14,177.81,527.47,178.09,527.87,178.09z M521.31,171.19c1.25,0,2.14-0.3,2.66-0.91c0.52-0.6,0.78-1.47,0.78-2.61
			s-0.3-2-0.91-2.6s-1.67-0.89-3.19-0.89h-1.78v7H521.31z"/>
		<path class="st24" d="M530.73,178.24c0.71,0,1.17-0.07,1.37-0.2s0.34-0.27,0.4-0.42c0.06-0.15,0.09-0.33,0.09-0.55v-11.68
			c0-0.45-0.14-0.77-0.41-0.94c-0.27-0.17-0.75-0.26-1.44-0.26v-1.21h11.94l0.43,3.98l-1.59,0.01l-0.3-1.24
			c-0.15-0.59-0.3-0.97-0.45-1.12c-0.27-0.27-0.73-0.41-1.37-0.41h-4.35v6.39h2.13c0.83,0,1.33-0.05,1.52-0.17
			c0.19-0.11,0.32-0.27,0.38-0.47s0.1-0.5,0.1-0.89h1.43v4.25h-1.43c0-0.68-0.13-1.1-0.4-1.27c-0.27-0.16-0.8-0.25-1.61-0.25h-2.13
			v6.43h4.67c0.85,0,1.41-0.29,1.69-0.86c0.09-0.18,0.18-0.36,0.26-0.55l0.49-1.35h1.59l-0.43,3.96h-12.6V178.24z"/>
		<path class="st24" d="M545.36,178.22c0.72,0,1.18-0.07,1.39-0.21c0.21-0.14,0.35-0.29,0.41-0.44s0.09-0.35,0.09-0.57v-11.57
			c0-0.48-0.09-0.78-0.26-0.9c-0.29-0.21-0.84-0.32-1.64-0.32v-1.23h3.79l9.42,11.95v-9.51c0-0.48-0.08-0.78-0.25-0.9
			c-0.29-0.21-0.83-0.32-1.62-0.32v-1.23h5.53v1.23c-0.72,0-1.18,0.07-1.39,0.21c-0.21,0.14-0.35,0.29-0.41,0.44
			c-0.06,0.16-0.09,0.35-0.09,0.57v14.02h-1.35l-9.96-12.63V177c0,0.48,0.09,0.78,0.26,0.9c0.29,0.21,0.84,0.32,1.65,0.32v1.23
			h-5.57V178.22z"/>
		<path class="st24" d="M563.6,171.21c0-1.39,0.21-2.62,0.64-3.71c0.42-1.08,1-1.97,1.71-2.67c1.41-1.38,3.22-2.07,5.41-2.07
			c2.2,0,4,0.68,5.41,2.04c1.57,1.5,2.35,3.62,2.35,6.36s-0.72,4.84-2.16,6.31c-1.44,1.47-3.31,2.2-5.6,2.2
			c-2.29,0-4.16-0.74-5.6-2.23C564.32,175.95,563.6,173.88,563.6,171.21z M571.39,178.24c1.28,0,2.36-0.48,3.23-1.43
			c1.1-1.2,1.65-3.03,1.65-5.48c0-2.45-0.47-4.26-1.41-5.41s-2.12-1.73-3.53-1.73c-1.41,0-2.58,0.58-3.5,1.73
			c-0.92,1.15-1.38,2.88-1.38,5.19c0,3.32,0.91,5.5,2.72,6.55C569.84,178.05,570.58,178.24,571.39,178.24z"/>
		<path class="st24" d="M581.55,165.38c-0.2-0.47-0.42-0.78-0.66-0.95c-0.24-0.17-0.71-0.25-1.42-0.25v-1.21h6.89v1.21
			c-0.97,0-1.55,0.07-1.72,0.2s-0.26,0.28-0.25,0.43c0.01,0.15,0.06,0.34,0.15,0.57l4.12,10.83l4.15-10.83
			c0.17-0.44,0.12-0.75-0.15-0.93c-0.27-0.18-0.9-0.27-1.9-0.27v-1.21h6v1.21c-0.61,0-1.06,0.09-1.37,0.27
			c-0.31,0.18-0.55,0.49-0.72,0.92l-5.71,14.06h-1.44L581.55,165.38z"/>
		<path class="st24" d="M596.15,178.24c0.61,0,1.07-0.09,1.38-0.28c0.31-0.19,0.55-0.49,0.72-0.92l5.93-14.06h1.88l5.42,14.06
			c0.2,0.47,0.42,0.79,0.66,0.95c0.24,0.16,0.71,0.25,1.42,0.25v1.21h-6.77v-1.21c0.97,0,1.54-0.07,1.72-0.2s0.26-0.27,0.25-0.43
			c-0.01-0.15-0.06-0.34-0.15-0.57l-0.99-2.75h-6.38l-1.13,2.75c-0.17,0.44-0.12,0.75,0.15,0.93c0.27,0.18,0.9,0.27,1.9,0.27v1.21
			h-6V178.24z M607.19,173.08l-2.55-7.11l-2.91,7.11H607.19z"/>
		<path class="st24" d="M617.66,178.24c0.83,0,1.38-0.07,1.65-0.2c0.27-0.14,0.45-0.28,0.53-0.43c0.08-0.15,0.12-0.34,0.12-0.56
			v-12.79h-2.25c-1.21,0-1.9,0.64-2.08,1.92l-0.32,2.23l-1.59-0.01l0.48-5.41h13.97l0.48,5.41l-1.59,0.01l-0.32-2.23
			c-0.08-0.59-0.24-1.01-0.47-1.26c-0.42-0.44-0.96-0.66-1.6-0.66h-2.25v12.79c0,0.46,0.15,0.78,0.46,0.94s0.92,0.25,1.84,0.25v1.21
			h-7.06V178.24z"/>
		<path class="st24" d="M629.64,178.24c0.7,0,1.15-0.07,1.36-0.2c0.21-0.14,0.35-0.28,0.41-0.43c0.06-0.15,0.09-0.34,0.09-0.56
			l-0.01-11.66c0-0.48-0.08-0.77-0.25-0.89c-0.29-0.21-0.82-0.31-1.59-0.31v-1.21h6.17v1.21c-0.7,0-1.15,0.07-1.36,0.2
			c-0.21,0.14-0.35,0.28-0.41,0.43s-0.09,0.34-0.09,0.56l0.01,11.66c0,0.48,0.08,0.77,0.25,0.89c0.29,0.21,0.82,0.31,1.59,0.31v1.21
			h-6.17V178.24z"/>
		<path class="st24" d="M637.41,178.22c0.72,0,1.18-0.07,1.39-0.21c0.21-0.14,0.35-0.29,0.41-0.44s0.09-0.35,0.09-0.57v-11.57
			c0-0.48-0.09-0.78-0.26-0.9c-0.29-0.21-0.84-0.32-1.64-0.32v-1.23h3.79l9.42,11.95v-9.51c0-0.48-0.08-0.78-0.25-0.9
			c-0.29-0.21-0.83-0.32-1.62-0.32v-1.23h5.53v1.23c-0.72,0-1.18,0.07-1.39,0.21c-0.21,0.14-0.35,0.29-0.41,0.44
			c-0.06,0.16-0.09,0.35-0.09,0.57v14.02h-1.35l-9.96-12.63V177c0,0.48,0.09,0.78,0.26,0.9c0.29,0.21,0.84,0.32,1.65,0.32v1.23
			h-5.57V178.22z"/>
		<path class="st24" d="M656.81,176.13c-0.37-0.63-0.65-1.35-0.86-2.16c-0.21-0.82-0.31-1.65-0.31-2.5s0.07-1.62,0.2-2.31
			s0.34-1.35,0.62-1.98c0.59-1.34,1.5-2.41,2.71-3.21c1.21-0.8,2.71-1.2,4.48-1.2c1.77,0,3.25,0.44,4.42,1.32
			c1.18,0.88,1.77,1.95,1.77,3.22c0,0.86-0.34,1.45-1.03,1.75c-0.21,0.09-0.44,0.14-0.68,0.14c-0.47,0-0.85-0.15-1.14-0.44
			s-0.44-0.63-0.44-1.02c0-0.78,0.31-1.31,0.93-1.6c-0.29-0.62-0.79-1.1-1.49-1.46c-0.7-0.35-1.42-0.53-2.16-0.53
			c-1.56,0-2.83,0.58-3.81,1.75c-0.98,1.16-1.48,2.91-1.48,5.23c0,2.32,0.51,4.09,1.54,5.31s2.27,1.82,3.73,1.82
			c1.19,0,2.12-0.3,2.77-0.9c0.65-0.6,0.98-1.26,0.98-1.98s-0.17-1.17-0.49-1.36s-1.08-0.28-2.26-0.28v-1.46h5.03v7.19h-1.47
			l-0.41-1.32c-0.63,0.66-1.6,1.12-2.92,1.38c-0.48,0.1-1.03,0.15-1.65,0.15c-0.61,0-1.24-0.07-1.87-0.2
			c-0.63-0.14-1.24-0.35-1.82-0.63c-0.58-0.29-1.11-0.65-1.61-1.1C657.6,177.29,657.17,176.75,656.81,176.13z"/>
		<path class="st24" d="M680.03,178.24c0.71,0,1.17-0.07,1.37-0.2c0.21-0.13,0.34-0.27,0.4-0.42c0.06-0.15,0.09-0.33,0.09-0.55
			v-11.68c0-0.45-0.14-0.77-0.41-0.94s-0.75-0.26-1.44-0.26v-1.21h11.94l0.43,3.98l-1.59,0.01l-0.3-1.24
			c-0.15-0.59-0.3-0.97-0.45-1.12c-0.27-0.27-0.73-0.41-1.37-0.41h-4.35v6.39h2.13c0.83,0,1.33-0.05,1.52-0.17
			c0.19-0.11,0.31-0.27,0.38-0.47s0.1-0.5,0.1-0.89h1.43v4.25h-1.43c0-0.68-0.13-1.1-0.4-1.27c-0.27-0.16-0.8-0.25-1.61-0.25h-2.13
			v6.43h4.67c0.85,0,1.41-0.29,1.69-0.86c0.09-0.18,0.18-0.36,0.26-0.55l0.49-1.35h1.59l-0.43,3.96h-12.6V178.24z"/>
		<path class="st24" d="M694.7,178.24c1.05,0,1.85-0.4,2.43-1.2l4.2-5.74l-3.79-5.92c-0.26-0.41-0.59-0.71-0.98-0.91
			c-0.39-0.19-0.94-0.29-1.65-0.29v-1.21h6.64v1.21c-0.75,0-1.18,0.09-1.3,0.27c-0.12,0.18-0.05,0.49,0.23,0.92l2.7,4.24l2.77-4.24
			c0.27-0.41,0.3-0.71,0.1-0.91c-0.21-0.19-0.74-0.29-1.6-0.29v-1.21h5.79v1.21c-1.1,0-1.91,0.4-2.43,1.2l-3.72,5.64l3.85,6.02
			c0.24,0.4,0.56,0.69,0.96,0.89c0.4,0.2,0.95,0.3,1.67,0.3v1.21h-6.64v-1.21c0.75,0,1.18-0.09,1.31-0.27
			c0.12-0.18,0.05-0.49-0.23-0.93l-2.78-4.34l-3.24,4.34c-0.45,0.59-0.3,0.96,0.43,1.11c0.26,0.06,0.62,0.09,1.08,0.09v1.21h-5.79
			V178.24z"/>
		<path class="st24" d="M720,178.24c2.3,0,3.76-1.06,4.37-3.18h1.58c0,0.57-0.15,1.13-0.46,1.68s-0.74,1.04-1.29,1.48
			c-1.23,0.97-2.81,1.45-4.74,1.45c-1.93,0-3.59-0.64-4.96-1.93c-1.6-1.49-2.39-3.66-2.39-6.52c0-2.28,0.62-4.21,1.84-5.77
			c0.87-1.12,2.03-1.9,3.48-2.34c0.75-0.23,1.57-0.34,2.46-0.34c1.76,0,3.21,0.4,4.35,1.21c1.13,0.81,1.7,1.82,1.7,3.05
			c0,0.92-0.36,1.53-1.08,1.84c-0.21,0.09-0.44,0.14-0.69,0.14c-0.77,0-1.28-0.33-1.55-0.98c-0.08-0.2-0.12-0.45-0.12-0.73
			s0.08-0.56,0.24-0.83c0.16-0.27,0.37-0.49,0.64-0.63c-0.59-1.13-1.65-1.7-3.18-1.7c-1.53,0-2.77,0.58-3.73,1.74
			c-0.96,1.16-1.44,2.9-1.44,5.22c0,2.32,0.49,4.09,1.46,5.31S718.63,178.24,720,178.24z"/>
		<path class="st24" d="M728.39,178.24c0.71,0,1.17-0.07,1.37-0.2s0.34-0.27,0.4-0.42c0.06-0.15,0.09-0.33,0.09-0.55v-11.68
			c0-0.45-0.14-0.77-0.41-0.94c-0.27-0.17-0.75-0.26-1.44-0.26v-1.21h11.94l0.43,3.98l-1.59,0.01l-0.3-1.24
			c-0.15-0.59-0.3-0.97-0.45-1.12c-0.27-0.27-0.73-0.41-1.37-0.41h-4.35v6.39h2.13c0.83,0,1.33-0.05,1.52-0.17
			c0.19-0.11,0.32-0.27,0.38-0.47s0.1-0.5,0.1-0.89h1.43v4.25h-1.43c0-0.68-0.13-1.1-0.4-1.27c-0.27-0.16-0.8-0.25-1.61-0.25h-2.13
			v6.43h4.67c0.85,0,1.41-0.29,1.69-0.86c0.09-0.18,0.18-0.36,0.26-0.55l0.49-1.35h1.59l-0.43,3.96h-12.6V178.24z"/>
		<path class="st24" d="M743.08,178.24c0.7,0,1.15-0.07,1.36-0.2c0.21-0.14,0.35-0.28,0.41-0.43c0.06-0.15,0.09-0.34,0.09-0.56
			l-0.01-11.66c0-0.48-0.08-0.77-0.24-0.89c-0.29-0.21-0.83-0.31-1.6-0.31v-1.21h6.18v1.21c-0.7,0-1.15,0.07-1.36,0.2
			c-0.21,0.14-0.35,0.28-0.41,0.43s-0.09,0.34-0.09,0.56v12.79h3.79c1.17,0,1.98-0.64,2.42-1.92l0.44-1.24l1.51,0.01l-0.76,4.42
			h-11.72V178.24z"/>
		<path class="st24" d="M757.08,178.24c0.69,0,1.15-0.07,1.36-0.2c0.21-0.14,0.35-0.28,0.41-0.43c0.06-0.15,0.09-0.34,0.09-0.56
			l-0.01-11.66c0-0.48-0.08-0.77-0.24-0.89c-0.29-0.21-0.83-0.31-1.6-0.31v-1.21h6.18v1.21c-0.7,0-1.15,0.07-1.36,0.2
			c-0.21,0.14-0.35,0.28-0.41,0.43s-0.09,0.34-0.09,0.56v12.79h3.79c1.17,0,1.98-0.64,2.42-1.92l0.44-1.24l1.52,0.01l-0.76,4.42
			h-11.72V178.24z"/>
		<path class="st24" d="M771.08,178.24c0.71,0,1.17-0.07,1.37-0.2s0.34-0.27,0.4-0.42c0.06-0.15,0.09-0.33,0.09-0.55v-11.68
			c0-0.45-0.14-0.77-0.41-0.94c-0.27-0.17-0.75-0.26-1.44-0.26v-1.21h11.94l0.43,3.98l-1.59,0.01l-0.3-1.24
			c-0.15-0.59-0.3-0.97-0.45-1.12c-0.27-0.27-0.73-0.41-1.37-0.41h-4.35v6.39h2.13c0.83,0,1.33-0.05,1.52-0.17
			c0.19-0.11,0.32-0.27,0.38-0.47s0.1-0.5,0.1-0.89h1.43v4.25h-1.43c0-0.68-0.13-1.1-0.4-1.27c-0.27-0.16-0.8-0.25-1.61-0.25h-2.13
			v6.43h4.67c0.85,0,1.41-0.29,1.69-0.86c0.09-0.18,0.18-0.36,0.26-0.55l0.49-1.35h1.59l-0.43,3.96h-12.6V178.24z"/>
		<path class="st24" d="M785.71,178.22c0.72,0,1.18-0.07,1.39-0.21c0.21-0.14,0.35-0.29,0.41-0.44s0.09-0.35,0.09-0.57v-11.57
			c0-0.48-0.09-0.78-0.26-0.9c-0.29-0.21-0.84-0.32-1.64-0.32v-1.23h3.79l9.42,11.95v-9.51c0-0.48-0.08-0.78-0.25-0.9
			c-0.29-0.21-0.83-0.32-1.62-0.32v-1.23h5.53v1.23c-0.72,0-1.18,0.07-1.39,0.21c-0.21,0.14-0.35,0.29-0.41,0.44
			c-0.06,0.16-0.09,0.35-0.09,0.57v14.02h-1.35l-9.96-12.63V177c0,0.48,0.09,0.78,0.26,0.9c0.29,0.21,0.84,0.32,1.65,0.32v1.23
			h-5.57V178.22z"/>
		<path class="st24" d="M811.85,178.24c2.3,0,3.76-1.06,4.37-3.18h1.58c0,0.57-0.15,1.13-0.46,1.68s-0.74,1.04-1.29,1.48
			c-1.23,0.97-2.81,1.45-4.74,1.45c-1.93,0-3.59-0.64-4.96-1.93c-1.6-1.49-2.39-3.66-2.39-6.52c0-2.28,0.62-4.21,1.84-5.77
			c0.87-1.12,2.03-1.9,3.48-2.34c0.75-0.23,1.57-0.34,2.46-0.34c1.76,0,3.21,0.4,4.35,1.21c1.13,0.81,1.7,1.82,1.7,3.05
			c0,0.92-0.36,1.53-1.08,1.84c-0.21,0.09-0.44,0.14-0.69,0.14c-0.77,0-1.28-0.33-1.55-0.98c-0.08-0.2-0.12-0.45-0.12-0.73
			s0.08-0.56,0.24-0.83c0.16-0.27,0.37-0.49,0.64-0.63c-0.59-1.13-1.65-1.7-3.18-1.7c-1.53,0-2.77,0.58-3.73,1.74
			c-0.96,1.16-1.44,2.9-1.44,5.22c0,2.32,0.49,4.09,1.46,5.31S810.47,178.24,811.85,178.24z"/>
		<path class="st24" d="M820.24,178.24c0.71,0,1.17-0.07,1.37-0.2s0.34-0.27,0.4-0.42c0.06-0.15,0.09-0.33,0.09-0.55v-11.68
			c0-0.45-0.14-0.77-0.41-0.94c-0.27-0.17-0.75-0.26-1.44-0.26v-1.21h11.94l0.43,3.98l-1.59,0.01l-0.3-1.24
			c-0.15-0.59-0.3-0.97-0.45-1.12c-0.27-0.27-0.73-0.41-1.37-0.41h-4.35v6.39h2.13c0.83,0,1.33-0.05,1.52-0.17
			c0.19-0.11,0.32-0.27,0.38-0.47s0.1-0.5,0.1-0.89h1.43v4.25h-1.43c0-0.68-0.13-1.1-0.4-1.27c-0.27-0.16-0.8-0.25-1.61-0.25h-2.13
			v6.43h4.67c0.85,0,1.41-0.29,1.69-0.86c0.09-0.18,0.18-0.36,0.26-0.55l0.49-1.35h1.59l-0.43,3.96h-12.6V178.24z"/>
	</g>
</g>
</svg>
