<?xml version="1.0" encoding="iso-8859-1"?>
<!-- Uploaded to: SVG Repo, www.svgrepo.com, Generator: SVG Repo Mixer Tools -->
<svg fill="#000000" width="100px" height="100px" version="1.1" id="Layer_1" xmlns="http://www.w3.org/2000/svg" xmlns:xlink="http://www.w3.org/1999/xlink" 
	 viewBox="0 0 508.612 508.612" xml:space="preserve">
<g>
	<g>
		<path d="M379.346,260.2c-3-8.244-12.12-12.428-20.372-9.428l-107.552,39.08c-7.384,1.372-12.98,7.54-12.98,15.32l-0.064,56.42
			h-39.98c-6.58,0-11.644,5.908-11.644,12.48v23.516c0,5.176,3.972,9.552,7.948,11.192v37.972c0,23.212,15.892,42.74,35.756,48.436
			v1.504c0,6.576,5.604,11.92,12.18,11.92h23.248c6.576,0,12.252-5.348,12.252-11.92v-1.62c19.868-5.86,35.76-25.276,35.76-48.32
			v-37.804c3.976-1.476,7.948-5.98,7.948-11.36v-23.516c0-6.576-5.072-12.48-11.64-12.48H270.17l0.056-45.032l99.62-36.06
			C378.094,277.5,382.346,268.448,379.346,260.2z"/>
	</g>
</g>
<g>
	<g>
		<path d="M379.346,192.376c-3-8.244-12.12-12.496-20.372-9.496l-220.208,80.152c-8.248,3-12.5,12.12-9.5,20.372
			c2.348,6.452,8.444,10.464,14.936,10.464c1.804,0,3.64-0.312,5.436-0.964l220.208-80.156
			C378.094,209.748,382.346,200.628,379.346,192.376z"/>
	</g>
</g>
<g>
	<g>
		<path d="M379.342,124.66c-2.996-8.248-12.116-12.5-20.368-9.5l-220.208,80.152c-8.248,3-12.5,12.12-9.5,20.372
			c2.348,6.456,8.444,10.46,14.936,10.46c1.804,0,3.64-0.308,5.436-0.96l220.204-80.152
			C378.09,142.032,382.342,132.912,379.342,124.66z"/>
	</g>
</g>
<g>
	<g>
		<path d="M379.346,56.764c-3-8.248-12.116-12.5-20.372-9.5l-220.208,80.152c-8.248,3-12.5,12.124-9.5,20.376
			c2.348,6.452,8.448,10.46,14.94,10.46c1.804,0,3.64-0.312,5.436-0.964l220.204-80.152
			C378.094,74.136,382.346,65.016,379.346,56.764z"/>
	</g>
</g>
<g>
	<g>
		<path d="M321.186,10.464c-3-8.252-12.116-12.504-20.372-9.5L138.766,59.968c-8.248,3-12.5,12.124-9.5,20.376
			c2.348,6.452,8.448,10.46,14.94,10.46c1.804,0,3.64-0.312,5.436-0.964l162.044-59.004
			C319.934,27.832,324.186,18.716,321.186,10.464z"/>
	</g>
</g>
</svg>